<svg version="1.1" id="logo-akiem" xmlns="http://www.w3.org/2000/svg" xmlns:xlink="http://www.w3.org/1999/xlink" x="0px" y="0px"
	 width="157" height="58" viewBox="0 0 156.3 57.6" xml:space="preserve" role="img" aria-label="[title]">
	<title>Akiem</title>
<style type="text/css">
	.st1{clip-path:url(#SVGID_2_);}
	.st2{clip-path:url(#SVGID_4_);fill:#FFFFFF;}
</style>
<g>
	<path fill="#FFFFFF" d="M82.8,7c-0.8,0-2.5,0.1-3.7,0.4c-2.4,0.7-4,2.1-4.7,4.4L70,27.2c-0.4,1.5-0.2,2.9,0.2,3.8
		c0.8,2,3.3,3.2,4.7,3.7c4.1,1.7,9.3,3.4,15.8,3.4h0.1c1.4,0,3-0.2,3.7-0.4c2.4-0.7,4-2.1,4.7-4.4l4.4-15.3c0.6-1.9,0-4.6-2.6-6.3
		c-0.9-0.6-1.8-1-2.4-1.2C93.8,8.4,88.7,7,82.8,7L82.8,7z"/>
</g>
<g>
	<defs>
		<path id="SVGID_1_" d="M82.8,7c-0.8,0-2.5,0.1-3.7,0.4c-2.4,0.7-4,2.1-4.7,4.4L70,27.2c-0.4,1.5-0.2,2.9,0.2,3.8
			c0.8,2,3.3,3.2,4.7,3.7c4.1,1.7,9.3,3.4,15.8,3.4h0.1c1.4,0,3-0.2,3.7-0.4c2.4-0.7,4-2.1,4.7-4.4l4.4-15.3c0.6-1.9,0-4.6-2.6-6.3
			c-0.9-0.6-1.8-1-2.4-1.2C93.8,8.4,88.7,7,82.8,7L82.8,7z"/>
	</defs>
	<clipPath id="SVGID_2_">
		<use xlink:href="#SVGID_1_"  style="overflow:visible;"/>
	</clipPath>
	<g class="st1">
		<defs>
			<rect id="SVGID_3_" x="153.8" y="-0.5" width="112.8" height="29.6"/>
		</defs>
		<clipPath id="SVGID_4_">
			<use xlink:href="#SVGID_3_"  style="overflow:visible;"/>
		</clipPath>
		<rect x="207.3" y="5.4" class="st2" width="26.5" height="23.9"/>
	</g>
</g>
<g>
	<path fill="#FFFFFF" d="M95.6,17.6c-2.8,2.1-6.5,3.7-10.2,4.4c-1.2,0.2-2.3,0.3-3.4,0.3c0.2-3,2.5-6.2,8.5-8.6
		c4.7-1.9,7.4-1.9,8.2-1.3C99.4,13.1,98.8,15.2,95.6,17.6 M101.9,12.2c-1.3-1.2-3.3-1.9-5.6-2.1c-2.6-0.2-5.7,0.1-9,1.1
		c-5.8,1.7-9.6,4.3-11.6,7c-0.8,1-1.2,2-1.4,3c-0.7-0.1-1.6-0.3-2.4-0.5l-0.2,0.8c1.1,0.4,2.3,0.8,2.5,0.9c0,0.4,0.2,1.8,0.9,3
		c1.5,2.7,4.9,5.1,9.4,6.8c4.4,1.6,9.8,2.3,14.4,1.9c0.1-0.3,0.2-0.6,0.3-0.9c-3.7,0-7.8-0.8-10.7-2.2c-2.7-1.3-4.7-3.2-5.8-5.2
		c-0.2-0.4-0.3-0.8-0.5-1.1c2.4,0.5,4.8,0.8,7,0.9c5.7,0.1,9.2-1.6,11.1-3C104.3,19.6,105,14.9,101.9,12.2"/>
	<path fill="#FFFFFF" d="M20.6,14.6c-0.7-0.1-1.5-0.2-2.6-0.2c-5.9,0-10.9,5.8-11.2,11.1c-0.2,2.4,0.7,4.4,3.5,4.4c3,0,6.8-3.2,8.5-9.2
		L20.6,14.6z M16.6,33.8c0.1-1.4,0.5-3.2,0.9-5.2h-0.2c-2.9,4.3-6.5,5.8-10,5.8c-4.8,0-7.7-3.2-7.3-7.9c0.6-7.9,7.5-16.3,20-16.3
		c2.9,0,6,0.5,8,1l-3.6,12.1c-1,3.5-1.8,7.8-1.8,10.6H16.6z"/>
	<path fill="#FFFFFF" d="M28.7,33.8L38.5,0h6.3l-5.9,20.7H39c0.9-0.9,1.8-1.8,2.6-2.5l8.5-7.6H58l-12.2,9.6l6.7,13.6h-7.1l-4.7-10.6
		l-3.3,2.6l-2.3,8.1H28.7z"/>
	<path fill="#FFFFFF" d="M67,7.3c-1.9,0-3.2-1.2-3-3c0.1-2,2-3.4,4.1-3.4c2,0,3.3,1.2,3.2,3C71,6,69.1,7.3,67,7.3 M55.8,33.8l6.7-23.2
		h6.4l-6.7,23.2H55.8z"/>
	<path fill="#FFFFFF" d="M104.8,33.8l4.5-16c0.8-2.8,1.4-5.2,1.8-7.2h5.5l-0.8,4.1h0.1c2.7-3.1,6.1-4.6,9.6-4.6c4.2,0,5.9,2.3,6,4.8
		c2.6-3.2,6.1-4.7,9.8-4.8c3.7,0,6.4,2,6.1,6.2c-0.1,1-0.4,2.7-0.7,4l-3.9,13.6h-6.2l3.7-13c0.2-1,0.5-2,0.6-3
		c0.1-2-0.7-3.3-3.1-3.3c-2.9,0-6.4,3.2-7.7,8.1l-3.2,11.1h-6.1l3.8-13.2c0.3-1,0.5-1.9,0.5-2.7c0.1-1.8-0.4-3.3-2.9-3.3
		c-3,0-6.6,3.5-7.9,8.2l-3.1,11H104.8z"/>
</g>
</svg>