<svg xmlns="http://www.w3.org/2000/svg" width="257.305" height="53.76" viewBox="0 0 257.305 53.76">
            <g id="Group_43" data-name="Group 43" transform="translate(0 0)">
                <path id="Path_29" data-name="Path 29" d="M7.154,3.474,0,54.633H32.155L33.6,44.227H12.717L18.426,3.474Z" transform="translate(0 -2.174)" fill="#252f38"/>
                <path id="Path_30" data-name="Path 30" d="M109.272,3.474h11.272L113.39,54.632H102.119Z" transform="translate(-63.896 -2.174)" fill="#252f38"/>
                <path id="Path_50" data-name="Path 50" d="M607.03,13.8a6.76,6.76,0,0,0-3.4-2.565A12.454,12.454,0,0,0,599.3,10.4a12.68,12.68,0,0,0-2.6.289,10.166,10.166,0,0,0-2.565.9,6.783,6.783,0,0,0-2.059,1.626,4.783,4.783,0,0,0-1.084,2.457,3.824,3.824,0,0,0,.614,2.854,6.357,6.357,0,0,0,2.384,1.879,21.486,21.486,0,0,0,3.613,1.337q2.059.579,4.155,1.3a32.042,32.042,0,0,1,4.082,1.734,12.23,12.23,0,0,1,3.432,2.565,9.59,9.59,0,0,1,2.132,3.9,13.252,13.252,0,0,1,.18,5.672,17.933,17.933,0,0,1-2.637,7.443,18.868,18.868,0,0,1-5.058,5.275,21.427,21.427,0,0,1-6.719,3.107,29.226,29.226,0,0,1-7.7,1.012,25.563,25.563,0,0,1-9.032-1.517,19.56,19.56,0,0,1-7.3-4.913l9.322-8.816a9.847,9.847,0,0,0,3.865,3.577,11.139,11.139,0,0,0,5.238,1.264,12.834,12.834,0,0,0,2.818-.325,10.727,10.727,0,0,0,2.673-.976,6.658,6.658,0,0,0,2.059-1.662,4.883,4.883,0,0,0,1.048-2.384,3.667,3.667,0,0,0-1.264-3.649,14.419,14.419,0,0,0-4.155-2.276q-2.531-.938-5.492-1.879a22.3,22.3,0,0,1-5.419-2.529,11.34,11.34,0,0,1-3.866-4.191,11.158,11.158,0,0,1-.831-6.864,17.216,17.216,0,0,1,2.637-7.226,19.067,19.067,0,0,1,5.094-5.2,22.654,22.654,0,0,1,6.72-3.143,27.49,27.49,0,0,1,15.644.181,15.954,15.954,0,0,1,6.684,4.118Z" transform="translate(-358.613 0.001)" fill="#252f38"/>
                <path id="Path_51" data-name="Path 51" d="M165.758,26.059l-6.114,42.7h11.272L174.433,44.5Z" transform="translate(-99.889 -16.305)" fill="#252f38"/>
                <path id="Path_52" data-name="Path 52" d="M220.034,3.474l-4.986,35.551H214.9L198.14,3.474H185.254L197.8,30.147l11.611,24.485h14.74l7.154-51.158Z" transform="translate(-115.913 -2.174)" fill="#252f38"/>
                <path id="Path_53" data-name="Path 53" d="M364.461,13.27l1.361-9.8H332.44l-1.37,9.8Z" transform="translate(-207.149 -2.174)" fill="#009689"/>
                <path id="Path_54" data-name="Path 54" d="M317.073,112.352l-1.455,10.405H349.44l1.445-10.405H317.073Z" transform="translate(-197.481 -70.298)" fill="#009689"/>
                <path id="Path_55" data-name="Path 55" d="M324.806,57.3l-1.434,10.258h11.253l.007-.056h22.183l1.417-10.2Z" transform="translate(-202.333 -35.85)" fill="#009689"/>
                <path id="Path_56" data-name="Path 56" d="M436.145,55.568H423.914l28.8-50.346h9.173l14.862,50.346H464.234l-9.315-35.7Z" transform="translate(-265.242 -3.267)" fill="#252f38"/>
            </g>
            </svg>