<?xml version="1.0" encoding="UTF-8"?>
<svg width="420px" height="114px" viewBox="0 0 420 114" version="1.1" xmlns="http://www.w3.org/2000/svg" xmlns:xlink="http://www.w3.org/1999/xlink">
    <title>logo_white</title>
    <g id="logo_white" stroke="none" stroke-width="1" fill="none" fill-rule="evenodd">
        <g id="Group-15" transform="translate(0.346900, 0.345500)" fill="#ffffff">
            <path d="M56.69,103.654 C30.757,103.654 9.731,82.629 9.731,56.694 C9.731,30.756 30.757,9.733 56.69,9.733 C82.625,9.733 103.652,30.756 103.652,56.694 C103.652,82.629 82.625,103.654 56.69,103.654 M56.69,0 C25.43,0 0,25.428 0,56.691 C0,87.953 25.43,113.386 56.69,113.386 C87.95,113.386 113.385,87.953 113.385,56.691 C113.385,25.428 87.95,0 56.69,0" id="Fill-1"></path>
            <path d="M62.8384,71.943 C59.4494,71.943 56.6514,69.131 56.6514,65.748 C56.6514,62.338 59.4494,59.595 62.8384,59.595 C66.2754,59.595 69.0264,62.338 69.0264,65.748 C69.0264,69.131 66.2754,71.943 62.8384,71.943 M81.1424,71.73 C79.9774,71.73 79.4274,72.771 78.2964,74.584 C77.9964,75.068 77.4594,75.603 76.5164,75.666 L73.8384,75.666 C84.5834,56.054 79.8264,31.853 65.5004,17.964 C62.0544,14.623 59.1354,13.641 49.9414,15.014 C48.0894,15.336 46.8894,15.586 44.3974,16.31 C42.4494,16.987 42.1364,18.932 43.3994,19.961 C47.8164,23.487 49.2264,24.817 53.0344,29 C53.9234,30.339 52.2664,31.97 50.8844,30.832 C49.5684,29.079 43.7844,23.438 39.6244,20.658 C38.4224,19.804 36.6494,19.519 34.6954,20.631 C30.0874,23.39 25.8314,27.438 24.6034,29.225 C23.7544,30.657 23.8834,32.039 25.4024,32.701 C30.2784,34.383 34.4394,36.586 36.5304,38.106 C37.9054,39.195 36.5924,41.228 34.9234,40.371 C31.6914,38.305 27.1884,35.841 23.4634,35.039 C21.3124,34.663 20.3094,35.438 19.4754,36.73 C17.5834,39.669 15.8624,44.933 15.2974,48.077 C14.9534,49.653 16.0044,50.878 17.5574,50.876 C34.0684,50.865 43.3854,63.189 43.3524,75.629 L38.0414,75.629 C33.3994,75.629 32.1764,71.736 27.4854,71.736 L18.4464,71.736 C17.3874,71.763 17.0464,73.195 17.9064,73.802 C21.9444,76.299 24.6034,80.554 25.6654,85.937 C25.7884,86.453 26.1314,86.851 26.8674,86.851 L29.8314,86.851 C35.3154,86.836 34.8084,82.965 40.7714,82.965 L76.5654,82.965 C77.5424,83.078 77.6764,83.449 78.0674,84.476 C78.8984,86.519 79.7614,86.828 80.4224,86.851 C86.5424,86.824 91.7494,81.849 93.7314,79.324 C90.3464,74.828 85.0704,71.73 81.1424,71.73" id="Fill-3"></path>
            <path d="M162.2212,14.6935 L172.8592,10.2405 L177.2242,16.5205 L160.6752,24.0695 L148.7502,16.1605 L153.4522,10.2405 L162.2212,14.6935 Z M127.5592,89.0795 L130.7392,78.0195 C137.4742,79.8765 143.0502,81.2505 149.7542,81.2505 C157.9272,81.2505 159.7902,79.7785 160.7502,74.1025 C161.0432,72.7315 161.1322,71.5585 161.1172,70.6785 C161.0722,67.7395 158.9652,66.9565 150.4482,64.9015 C138.7752,62.1605 134.4222,58.3425 134.3062,50.7075 C134.2732,48.6535 134.5572,46.3025 135.0382,43.6575 C137.8582,29.1725 142.0052,26.2375 160.9672,26.2375 C166.3142,26.2375 175.1282,27.3115 181.3322,28.7785 L178.7872,40.8175 C172.5892,39.4475 164.6162,38.5705 159.8982,38.5705 C152.3532,38.5705 150.9022,39.5475 150.0342,44.7365 C149.8502,46.2025 149.6582,47.3795 149.6732,48.2595 C149.7182,51.3925 151.8202,51.8825 160.0232,53.8425 C173.0642,56.8775 176.6802,60.5905 176.7812,67.2525 C176.8142,69.3065 176.5322,71.5585 176.0502,74.1985 C173.7392,87.6095 168.7972,93.3865 148.9962,93.3865 C143.2322,93.3865 133.0422,91.5265 127.5592,89.0795 L127.5592,89.0795 Z" id="Fill-5"></path>
            <path d="M202.3243,59.1256 L226.2533,27.2136 L245.1133,27.2136 L219.2993,59.1256 L233.6373,92.4106 L216.7683,92.4106 L202.3243,59.1256 Z M191.9513,27.2136 L207.3523,27.2136 L196.0843,92.4106 L180.6813,92.4106 L191.9513,27.2136 Z" id="Fill-7"></path>
            <path d="M282.8794,45.423 C282.8194,41.408 279.9524,38.961 272.5154,38.961 C264.5514,38.961 260.4084,42.191 259.4434,47.379 L255.1054,72.241 C255.0114,73.026 254.9184,73.811 254.9264,74.495 C254.9874,78.41 257.7474,80.664 265.2894,80.664 C273.2534,80.664 277.4024,77.823 278.3614,72.241 L282.7004,47.379 C282.7974,46.694 282.8894,46.007 282.8794,45.423 M239.3404,76.059 C239.3244,75.08 239.4164,74.004 239.6094,73.026 L244.2294,46.107 C246.3494,33.967 254.1954,26.238 273.8964,26.238 C290.4444,26.238 298.3344,35.045 298.4674,43.957 C298.4834,44.835 298.3934,45.915 298.1984,46.887 L293.5724,73.515 C291.4584,85.946 283.7134,93.387 263.0744,93.387 C246.6254,93.387 239.4744,84.869 239.3404,76.059" id="Fill-9"></path>
            <path d="M344.2144,45.423 C344.1634,41.901 341.9334,39.938 335.3334,39.938 L325.5874,39.938 L318.6494,79.682 L329.3364,79.682 C337.6114,79.682 339.0354,76.748 339.8994,71.558 L343.9424,48.064 C344.1364,47.088 344.2304,46.202 344.2144,45.423 L344.2144,45.423 Z M301.0324,92.411 L312.4024,27.214 L339.0184,27.214 C354.1054,27.214 359.7734,34.947 359.9004,43.17 C359.9194,44.349 359.8354,45.618 359.6434,46.793 L354.6294,75.571 C353.1894,84.183 349.5434,92.411 329.5264,92.411 L301.0324,92.411 Z" id="Fill-11"></path>
            <path d="M383.2095,67.6403 L399.8695,67.6403 L396.5075,39.2563 L383.2095,67.6403 Z M401.5185,79.5853 L377.7345,79.5853 L371.6455,92.4113 L354.9815,92.4113 L387.5255,27.2143 L408.5815,27.2143 L419.5275,92.4113 L403.1785,92.4113 L401.5185,79.5853 Z" id="Fill-13"></path>
        </g>
    </g>
</svg>