<svg xmlns="http://www.w3.org/2000/svg" viewBox="-2 -2 104 104">
  <g stroke="#05EFBF" stroke-width="0.281" stroke-linecap="round">
    <line x1="96.242" y1="50.000" x2="100.000" y2="50.000"/>
    <line x1="96.143" y1="53.024" x2="99.893" y2="53.270"/>
    <line x1="95.847" y1="56.036" x2="99.572" y2="56.526"/>
    <line x1="95.354" y1="59.021" x2="99.039" y2="59.755"/>
    <line x1="94.667" y1="61.968" x2="98.296" y2="62.941"/>
    <line x1="93.788" y1="64.864" x2="97.347" y2="66.072"/>
    <line x1="92.722" y1="67.696" x2="96.194" y2="69.134"/>
    <line x1="91.473" y1="70.452" x2="94.844" y2="72.114"/>
    <line x1="90.047" y1="73.121" x2="93.301" y2="75.000"/>
    <line x1="88.449" y1="75.691" x2="91.573" y2="77.779"/>
    <line x1="86.686" y1="78.150" x2="89.668" y2="80.438"/>
    <line x1="84.767" y1="80.490" x2="87.592" y2="82.967"/>
    <line x1="82.698" y1="82.698" x2="85.355" y2="85.355"/>
    <line x1="80.490" y1="84.767" x2="82.967" y2="87.592"/>
    <line x1="78.150" y1="86.686" x2="80.438" y2="89.668"/>
    <line x1="75.691" y1="88.449" x2="77.779" y2="91.573"/>
    <line x1="73.121" y1="90.047" x2="75.000" y2="93.301"/>
    <line x1="70.452" y1="91.473" x2="72.114" y2="94.844"/>
    <line x1="67.696" y1="92.722" x2="69.134" y2="96.194"/>
    <line x1="64.864" y1="93.788" x2="66.072" y2="97.347"/>
    <line x1="61.968" y1="94.667" x2="62.941" y2="98.296"/>
    <line x1="59.021" y1="95.354" x2="59.755" y2="99.039"/>
    <line x1="56.036" y1="95.847" x2="56.526" y2="99.572"/>
    <line x1="53.024" y1="96.143" x2="53.270" y2="99.893"/>
    <line x1="50.000" y1="96.242" x2="50.000" y2="100.000"/>
    <line x1="46.976" y1="96.143" x2="46.730" y2="99.893"/>
    <line x1="43.964" y1="95.847" x2="43.474" y2="99.572"/>
    <line x1="40.979" y1="95.354" x2="40.245" y2="99.039"/>
    <line x1="38.032" y1="94.667" x2="37.059" y2="98.296"/>
    <line x1="35.136" y1="93.788" x2="33.928" y2="97.347"/>
    <line x1="32.304" y1="92.722" x2="30.866" y2="96.194"/>
    <line x1="29.548" y1="91.473" x2="27.886" y2="94.844"/>
    <line x1="26.879" y1="90.047" x2="25.000" y2="93.301"/>
    <line x1="24.309" y1="88.449" x2="22.221" y2="91.573"/>
    <line x1="21.850" y1="86.686" x2="19.562" y2="89.668"/>
    <line x1="19.510" y1="84.767" x2="17.033" y2="87.592"/>
    <line x1="17.302" y1="82.698" x2="14.645" y2="85.355"/>
    <line x1="15.233" y1="80.490" x2="12.408" y2="82.967"/>
    <line x1="13.314" y1="78.150" x2="10.332" y2="80.438"/>
    <line x1="11.551" y1="75.691" x2="8.427" y2="77.779"/>
    <line x1="9.953" y1="73.121" x2="6.699" y2="75.000"/>
    <line x1="8.527" y1="70.452" x2="5.156" y2="72.114"/>
    <line x1="7.278" y1="67.696" x2="3.806" y2="69.134"/>
    <line x1="6.212" y1="64.864" x2="2.653" y2="66.072"/>
    <line x1="5.333" y1="61.968" x2="1.704" y2="62.941"/>
    <line x1="4.646" y1="59.021" x2="0.961" y2="59.755"/>
    <line x1="4.153" y1="56.036" x2="0.428" y2="56.526"/>
    <line x1="3.857" y1="53.024" x2="0.107" y2="53.270"/>
    <line x1="3.758" y1="50.000" x2="0.000" y2="50.000"/>
    <line x1="3.857" y1="46.976" x2="0.107" y2="46.730"/>
    <line x1="4.153" y1="43.964" x2="0.428" y2="43.474"/>
    <line x1="4.646" y1="40.979" x2="0.961" y2="40.245"/>
    <line x1="5.333" y1="38.032" x2="1.704" y2="37.059"/>
    <line x1="6.212" y1="35.136" x2="2.653" y2="33.928"/>
    <line x1="7.278" y1="32.304" x2="3.806" y2="30.866"/>
    <line x1="8.527" y1="29.548" x2="5.156" y2="27.886"/>
    <line x1="9.953" y1="26.879" x2="6.699" y2="25.000"/>
    <line x1="11.551" y1="24.309" x2="8.427" y2="22.221"/>
    <line x1="13.314" y1="21.850" x2="10.332" y2="19.562"/>
    <line x1="15.233" y1="19.510" x2="12.408" y2="17.033"/>
    <line x1="17.302" y1="17.302" x2="14.645" y2="14.645"/>
    <line x1="19.510" y1="15.233" x2="17.033" y2="12.408"/>
    <line x1="21.850" y1="13.314" x2="19.562" y2="10.332"/>
    <line x1="24.309" y1="11.551" x2="22.221" y2="8.427"/>
    <line x1="26.879" y1="9.953" x2="25.000" y2="6.699"/>
    <line x1="29.548" y1="8.527" x2="27.886" y2="5.156"/>
    <line x1="32.304" y1="7.278" x2="30.866" y2="3.806"/>
    <line x1="35.136" y1="6.212" x2="33.928" y2="2.653"/>
    <line x1="38.032" y1="5.333" x2="37.059" y2="1.704"/>
    <line x1="40.979" y1="4.646" x2="40.245" y2="0.961"/>
    <line x1="43.964" y1="4.153" x2="43.474" y2="0.428"/>
    <line x1="46.976" y1="3.857" x2="46.730" y2="0.107"/>
    <line x1="50.000" y1="3.758" x2="50.000" y2="0.000"/>
    <line x1="53.024" y1="3.857" x2="53.270" y2="0.107"/>
    <line x1="56.036" y1="4.153" x2="56.526" y2="0.428"/>
    <line x1="59.021" y1="4.646" x2="59.755" y2="0.961"/>
    <line x1="61.968" y1="5.333" x2="62.941" y2="1.704"/>
    <line x1="64.864" y1="6.212" x2="66.072" y2="2.653"/>
    <line x1="67.696" y1="7.278" x2="69.134" y2="3.806"/>
    <line x1="70.452" y1="8.527" x2="72.114" y2="5.156"/>
    <line x1="73.121" y1="9.953" x2="75.000" y2="6.699"/>
    <line x1="75.691" y1="11.551" x2="77.779" y2="8.427"/>
    <line x1="78.150" y1="13.314" x2="80.438" y2="10.332"/>
    <line x1="80.490" y1="15.233" x2="82.967" y2="12.408"/>
    <line x1="82.698" y1="17.302" x2="85.355" y2="14.645"/>
    <line x1="84.767" y1="19.510" x2="87.592" y2="17.033"/>
    <line x1="86.686" y1="21.850" x2="89.668" y2="19.562"/>
    <line x1="88.449" y1="24.309" x2="91.573" y2="22.221"/>
    <line x1="90.047" y1="26.879" x2="93.301" y2="25.000"/>
    <line x1="91.473" y1="29.548" x2="94.844" y2="27.886"/>
    <line x1="92.722" y1="32.304" x2="96.194" y2="30.866"/>
    <line x1="93.788" y1="35.136" x2="97.347" y2="33.928"/>
    <line x1="94.667" y1="38.032" x2="98.296" y2="37.059"/>
    <line x1="95.354" y1="40.979" x2="99.039" y2="40.245"/>
    <line x1="95.847" y1="43.964" x2="99.572" y2="43.474"/>
    <line x1="96.143" y1="46.976" x2="99.893" y2="46.730"/>
  </g>
</svg>
