<svg viewBox="0 0 1440 268" fill="none" xmlns="http://www.w3.org/2000/svg" aria-hidden="true">
<g clip-path="url(#sz-hero-clip)">
<mask id="sz-hero-mask" style="mask-type:luminance" maskUnits="userSpaceOnUse" x="0" y="-323" width="1440" height="1024">
<path d="M1440 -323H0V701H1440V-323Z" fill="white"/>
</mask>
<g mask="url(#sz-hero-mask)">
<path d="M780.233 -0.5C795.669 -0.499942 810.963 2.44164 825.298 8.16699L873.674 27.4883C886.315 32.537 899.72 35.4081 913.32 35.9785L1288.41 51.708C1322.01 53.1172 1353.52 68.3907 1375.45 93.8916L1491.59 228.976C1511.47 252.1 1521.93 281.855 1520.89 312.334L1511.76 579.538C1511.37 590.854 1509.41 602.06 1505.92 612.831L1497.92 637.52C1484.97 677.482 1452.3 707.923 1411.53 718.018L1355.28 731.94C1345.73 734.305 1335.93 735.5 1326.09 735.5H100.852C89.0437 735.5 77.2982 733.779 65.9866 730.391L26.8841 718.677C-8.74731 708.003 -37.5271 681.597 -51.2194 647.013L-63.4313 616.167C-68.5549 603.226 -71.417 589.5 -71.8923 575.59L-80.9938 309.194C-81.9702 280.617 -72.8361 252.61 -55.1989 230.104L48.2864 98.0459C70.2286 70.0458 103.339 53.0678 138.882 51.5928L515.331 35.9707C528.949 35.4055 542.372 32.5338 555.03 27.4785L603.38 8.16699C617.715 2.44165 633.01 -0.499961 648.446 -0.5H780.233ZM654.632 53.5C639.865 53.5 625.221 56.1916 611.42 61.4434L568.316 77.8467C556.123 82.4864 543.257 85.1154 530.221 85.6309L185.747 99.251C151.12 100.62 118.725 116.711 96.7113 143.475L7.72883 251.658C-11.108 274.56 -20.9198 303.56 -19.8571 333.194L-11.8229 557.228C-11.3019 571.756 -8.17807 586.073 -2.59929 599.498L4.95832 617.683C19.1694 651.88 48.2009 677.729 83.8118 687.893L115.144 696.835C125.988 699.93 137.21 701.5 148.488 701.5H1279.55C1288.94 701.5 1298.3 700.411 1307.44 698.256L1354.06 687.261C1394.8 677.652 1427.72 647.747 1441.2 608.116L1445.29 596.089C1449.1 584.877 1451.25 573.167 1451.68 561.332L1459.74 336.391C1460.87 304.835 1449.68 274.079 1428.52 250.637L1328.11 139.364C1306.2 115.087 1275.43 100.667 1242.76 99.3613L899.292 85.6377C886.273 85.1175 873.425 82.4893 861.247 77.8555L818.118 61.4434C804.317 56.1917 789.674 53.5 774.907 53.5H654.632Z" fill="#E1E3DC"/>
<path fill-rule="evenodd" clip-rule="evenodd" d="M568.316 77.8467L568.493 78.314H568.494L568.316 77.8467ZM861.247 77.8555L861.069 78.3228H861.07L861.247 77.8555ZM780.233 -0.5V0C795.605 5.75781e-05 810.837 2.92953 825.113 8.63133L825.298 8.16699L825.484 7.70266C811.09 1.95374 795.732 -0.999942 780.233 -1V-0.5ZM825.298 8.16699L825.113 8.63133L873.489 27.9526L873.674 27.4883L873.86 27.0239L825.484 7.70266L825.298 8.16699ZM873.674 27.4883L873.489 27.9526C886.182 33.0223 899.642 35.9053 913.299 36.4781L913.32 35.9785L913.341 35.479C899.797 34.9109 886.448 32.0518 873.86 27.0239L873.674 27.4883ZM913.32 35.9785L913.299 36.4781L1288.39 52.2076L1288.41 51.708L1288.43 51.2084L913.341 35.479L913.32 35.9785ZM1288.41 51.708L1288.39 52.2076C1321.85 53.611 1353.23 68.8216 1375.07 94.2176L1375.45 93.8916L1375.83 93.5656C1353.81 67.9598 1322.17 52.6234 1288.43 51.2084L1288.41 51.708ZM1375.45 93.8916L1375.07 94.2176L1491.21 229.302L1491.59 228.976L1491.97 228.65L1375.83 93.5656L1375.45 93.8916ZM1491.59 228.976L1491.21 229.302C1511.01 252.331 1521.42 281.964 1520.39 312.317L1520.89 312.334L1521.39 312.351C1522.43 281.747 1511.93 251.869 1491.97 228.65L1491.59 228.976ZM1520.89 312.334L1520.39 312.317L1511.26 579.521L1511.76 579.538L1512.26 579.555L1521.39 312.351L1520.89 312.334ZM1511.76 579.538L1511.26 579.521C1510.87 590.79 1508.92 601.95 1505.44 612.677L1505.92 612.831L1506.39 612.985C1509.9 602.17 1511.87 590.917 1512.26 579.555L1511.76 579.538ZM1505.92 612.831L1505.44 612.677L1497.44 637.365L1497.92 637.52L1498.39 637.674L1506.39 612.985L1505.92 612.831ZM1497.92 637.52L1497.44 637.365C1484.55 677.164 1452.02 707.48 1411.41 717.532L1411.53 718.018L1411.65 718.503C1452.59 708.367 1485.4 677.801 1498.39 637.674L1497.92 637.52ZM1411.53 718.018L1411.41 717.532L1355.16 731.455L1355.28 731.94L1355.4 732.426L1411.65 718.503L1411.53 718.018ZM1355.28 731.94L1355.16 731.455C1345.65 733.81 1335.89 735 1326.09 735V735.5V736C1335.97 736 1345.81 734.8 1355.4 732.426L1355.28 731.94ZM1326.09 735.5V735H100.852V735.5V736H1326.09V735.5ZM100.852 735.5V735C89.0923 735 77.3951 733.286 66.1301 729.912L65.9866 730.391L65.8432 730.87C77.2013 734.272 88.9952 736 100.852 736V735.5ZM65.9866 730.391L66.1301 729.912L27.0276 718.198L26.8841 718.677L26.7406 719.156L65.8432 730.87L65.9866 730.391ZM26.8841 718.677L27.0276 718.198C-8.45721 707.568 -37.1185 681.27 -50.7545 646.829L-51.2194 647.013L-51.6843 647.197C-37.9356 681.923 -9.03743 708.438 26.7406 719.156L26.8841 718.677ZM-51.2194 647.013L-50.7545 646.829L-62.9664 615.983L-63.4313 616.167L-63.8962 616.351L-51.6843 647.197L-51.2194 647.013ZM-63.4313 616.167L-62.9664 615.983C-68.069 603.095 -70.9192 589.426 -71.3926 575.573L-71.8923 575.59L-72.392 575.607C-71.9148 589.575 -69.0409 603.357 -63.8962 616.351L-63.4313 616.167ZM-71.8923 575.59L-71.3926 575.573L-80.4941 309.177L-80.9938 309.194L-81.4935 309.211L-72.392 575.607L-71.8923 575.59ZM-80.9938 309.194L-80.4941 309.177C-81.4664 280.717 -72.37 252.826 -54.8053 230.412L-55.1989 230.104L-55.5925 229.795C-73.3022 252.395 -82.4739 280.516 -81.4935 309.211L-80.9938 309.194ZM-55.1989 230.104L-54.8053 230.412L48.68 98.3543L48.2864 98.0459L47.8929 97.7375L-55.5925 229.795L-55.1989 230.104ZM48.2864 98.0459L48.68 98.3543C70.5319 70.4695 103.506 53.5613 138.903 52.0923L138.882 51.5928L138.861 51.0932C103.172 52.5743 69.9253 69.6222 47.8929 97.7375L48.2864 98.0459ZM138.882 51.5928L138.903 52.0923L515.352 36.4703L515.331 35.9707L515.311 35.4711L138.861 51.0932L138.882 51.5928ZM515.331 35.9707L515.352 36.4703C529.026 35.9027 542.505 33.0191 555.215 27.9429L555.03 27.4785L554.844 27.0142C542.239 32.0485 528.872 34.9083 515.311 35.4711L515.331 35.9707ZM555.03 27.4785L555.215 27.9429L603.566 8.63133L603.38 8.16699L603.195 7.70266L554.844 27.0142L555.03 27.4785ZM603.38 8.16699L603.566 8.63133C617.841 2.92955 633.073 3.86238e-05 648.446 0V-0.5V-1C632.946 -0.999961 617.589 1.95376 603.195 7.70266L603.38 8.16699ZM648.446 -0.5V0H780.233V-0.5V-1H648.446V-0.5ZM654.632 53.5V53C639.805 53 625.1 55.7027 611.242 60.9761L611.42 61.4434L611.598 61.9107C625.342 56.6805 639.926 54 654.632 54V53.5ZM611.42 61.4434L611.242 60.9761L568.138 77.3794L568.316 77.8467L568.494 78.314L611.598 61.9107L611.42 61.4434ZM568.316 77.8467L568.138 77.3794C555.995 81.9999 543.183 84.6179 530.201 85.1312L530.221 85.6309L530.241 86.1305C543.331 85.6129 556.25 82.973 568.493 78.314L568.316 77.8467ZM530.221 85.6309L530.201 85.1312L185.728 98.7514L185.747 99.251L185.767 99.7506L530.241 86.1305L530.221 85.6309ZM185.747 99.251L185.728 98.7514C150.958 100.126 118.429 116.283 96.3251 143.157L96.7113 143.475L97.0974 143.792C119.021 117.138 151.282 101.114 185.767 99.7506L185.747 99.251ZM96.7113 143.475L96.3251 143.157L7.34267 251.341L7.72882 251.658L8.11497 251.976L97.0974 143.792L96.7113 143.475ZM7.72882 251.658L7.34267 251.341C-11.5717 274.337 -21.4239 303.456 -20.3568 333.212L-19.8571 333.194L-19.3574 333.176C-20.4158 303.664 -10.6444 274.783 8.11497 251.976L7.72882 251.658ZM-19.8571 333.194L-20.3568 333.212L-12.3226 557.245L-11.8229 557.228L-11.3232 557.21L-19.3574 333.176L-19.8571 333.194ZM-11.8229 557.228L-12.3226 557.245C-11.7995 571.834 -8.66276 586.21 -3.06103 599.69L-2.5993 599.498L-2.13757 599.306C-7.69339 585.937 -10.8044 571.678 -11.3232 557.21L-11.8229 557.228ZM-2.5993 599.498L-3.06103 599.69L4.4966 617.875L4.95831 617.683L5.42004 617.491L-2.13757 599.306L-2.5993 599.498ZM4.95831 617.683L4.4966 617.875C18.7662 652.213 47.9172 678.168 83.6746 688.373L83.8118 687.893L83.9491 687.412C48.4847 677.29 19.5726 651.548 5.42004 617.491L4.95831 617.683ZM83.8118 687.893L83.6746 688.373L115.007 697.316L115.144 696.835L115.281 696.354L83.9491 687.412L83.8118 687.893ZM115.144 696.835L115.007 697.316C125.895 700.423 137.164 702 148.488 702V701.5V701C137.257 701 126.081 699.436 115.281 696.354L115.144 696.835ZM148.488 701.5V702H1279.55V701.5V701H148.488V701.5ZM1279.55 701.5V702C1288.98 702 1298.37 700.907 1307.55 698.742L1307.44 698.256L1307.32 697.769C1298.22 699.916 1288.9 701 1279.55 701V701.5ZM1307.44 698.256L1307.55 698.742L1354.17 687.747L1354.06 687.261L1353.94 686.774L1307.32 697.769L1307.44 698.256ZM1354.06 687.261L1354.17 687.747C1395.08 678.099 1428.14 648.071 1441.67 608.277L1441.2 608.116L1440.72 607.955C1427.31 647.423 1394.51 677.205 1353.94 686.774L1354.06 687.261ZM1441.2 608.116L1441.67 608.277L1445.76 596.25L1445.29 596.089L1444.81 595.928L1440.72 607.955L1441.2 608.116ZM1445.29 596.089L1445.76 596.25C1449.59 584.991 1451.75 573.234 1452.18 561.35L1451.68 561.332L1451.18 561.314C1450.75 573.1 1448.61 584.762 1444.81 595.928L1445.29 596.089ZM1451.68 561.332L1452.18 561.35L1460.24 336.409L1459.74 336.391L1459.24 336.373L1451.18 561.314L1451.68 561.332ZM1459.74 336.391L1460.24 336.409C1461.38 304.723 1450.14 273.84 1428.89 250.302L1428.52 250.637L1428.15 250.972C1449.22 274.317 1460.37 304.947 1459.24 336.373L1459.74 336.391ZM1428.52 250.637L1428.89 250.302L1328.48 139.029L1328.11 139.364L1327.74 139.699L1428.15 250.972L1428.52 250.637ZM1328.11 139.364L1328.48 139.029C1306.48 114.653 1275.59 100.173 1242.78 98.8617L1242.76 99.3613L1242.74 99.8609C1275.28 101.161 1305.92 115.522 1327.74 139.699L1328.11 139.364ZM1242.76 99.3613L1242.78 98.8617L899.312 85.1381L899.292 85.6377L899.272 86.1373L1242.74 99.8609L1242.76 99.3613ZM899.292 85.6377L899.312 85.1381C886.347 84.62 873.552 82.0027 861.425 77.3882L861.247 77.8555L861.07 78.3228C873.297 82.9758 886.199 85.6149 899.272 86.1373L899.292 85.6377ZM861.247 77.8555L861.425 77.3882L818.296 60.9761L818.118 61.4434L817.941 61.9107L861.069 78.3228L861.247 77.8555ZM818.118 61.4434L818.296 60.9761C804.438 55.7029 789.735 53 774.907 53V53.5V54C789.613 54 804.196 56.6806 817.941 61.9107L818.118 61.4434ZM774.907 53.5V53H654.632V53.5V54H774.907V53.5Z" fill="#737373"/>
</g>
</g>
<defs>
<clipPath id="sz-hero-clip">
<rect width="1440" height="268" fill="white"/>
</clipPath>
</defs>
</svg>
