<?xml version="1.0" encoding="UTF-8"?>
<svg id="Layer_1" data-name="Layer 1" xmlns="http://www.w3.org/2000/svg" viewBox="0 0 739.79 203.78">
  <g>
    <path d="m47.71,50.81h-27.55c-14.11,0-20.16,5.65-20.16,18.83v74.07c0,7.22,2.01,9.1,9.74,9.1h3.02c7.73,0,9.74-1.88,9.74-9.1v-68.58c0-3.29,1.51-4.7,5.04-4.7h20.16c10.92,0,14.61,5.02,14.61,14.6s-3.7,14.44-14.61,14.44l-8.38-.02c-7.73,0-8.73,1.88-8.73,9.11v1.41c0,7.22,1,9.1,8.73,9.1l8.38.02c26.71,0,37.12-13.65,37.12-34.05s-10.41-34.21-37.12-34.21Z" style="fill: #323e48;"/>
    <path d="m475.19,133.21h-40.82c-3.53,0-5.04-1.42-5.04-4.71v-16.27h39.15c7.72,0,9.74-1.88,9.74-9.1v-1.41c0-7.22-2.01-9.1-9.74-9.1l-51.96.02c-7.73,0-9.74,2.73-9.74,9.11l.06,32.26c0,13.18,6.04,18.83,20.15,18.83h48.21c7.72,0,9.74-1.88,9.74-9.1v-1.41c0-7.22-2.02-9.1-9.74-9.1Z" style="fill: #323e48;"/>
    <path d="m186.28,145.3l-22.01-30.92c16.13-3.92,22.68-15.07,22.68-30.92,0-19.61-10.42-32.64-37.13-32.64h-27.55c-14.11,0-20.16,5.65-20.16,18.83v74.07c0,7.22,2.01,9.1,9.74,9.1h3.02c7.72,0,9.74-1.88,9.74-9.1v-68.58c0-3.29,1.51-4.7,5.04-4.7h20.15c10.92,0,14.61,4.55,14.61,13.03,0,7.69-3.7,12.87-14.61,12.87h-11.46c-2.94,0-5.55,1.42-5.55,9.1v1.41c0,7.9,2.7,9.11,5.55,9.11h3.24l18.81,29.19c4.37,6.12,7.39,7.69,15.12,7.69h6.38c7.73,0,8.74-1.56,4.37-7.53Z" style="fill: #323e48;"/>
    <path d="m475.19,50.81h-48.21c-14.11,0-20.15,5.65-20.15,18.83l-.04,5.25c0,7.73,2.16,9.15,10.43,9.15h1.62c8.27,0,10.43-1.49,10.43-9.15,0-2.81.29-4.46,5.11-4.46h40.82c7.72,0,9.74-1.88,9.74-9.1v-1.42c0-7.22-2.02-9.1-9.74-9.1Z" style="fill: #323e48;"/>
    <path d="m205.47,113.01v-21.98c0-24.17,9.41-41.74,46.36-41.74s46.36,17.57,46.36,41.74v21.98c0,24.17-9.41,41.74-46.36,41.74s-46.36-17.58-46.36-41.74Zm70.05-21.98c0-14.44-3.53-22.13-23.69-22.13s-23.68,7.69-23.68,22.13v21.98c0,14.43,3.53,22.12,23.68,22.12s23.69-7.69,23.69-22.12v-21.98Z" style="fill: #323e48;"/>
    <path d="m312.64,139.21c0-7.22,2.01-9.26,9.74-7.38,7.06,1.73,13.95,3.14,25.53,3.14,13.27,0,18.31-2.04,18.31-8.47,0-4.7-2.85-7.06-13.44-12.87l-21.5-11.77c-11.25-6.12-16.97-14.13-16.97-26.37,0-17.26,11.26-26.36,39.14-26.36,9.08,0,14.45.78,21,2.51,7.89,2.04,9.91,3.77,9.91,10.99v1.57c0,7.22-2.02,9.42-9.91,7.06-4.87-1.41-12.26-2.51-21-2.51-11.08,0-15.95,1.57-15.95,7.38,0,3.92,2.35,5.96,9.24,9.73l22.35,12.24c12.93,7.06,20.32,14.12,20.32,28.41,0,17.73-11.26,28.09-41.83,28.09-13.27,0-22.35-2.19-25.37-2.98-7.72-2.04-9.57-3.61-9.57-10.83v-1.57Z" style="fill: #323e48;"/>
  </g>
  <g>
    <path d="m596.58,69.94v77.21c0,6.93,1.33,8.16,8.88,8.16h3.41c7.55,0,10.04-1.22,10.04-8.16v-70.99c0-3.41.2-7.47,6.69-7.47h22.81c12.74,0,18.67,5.93,18.67,18.66s-5.76,18.49-18.67,18.49l-8.34-.02c-7.54,0-8.87,1.22-8.87,8.15v1.6c0,6.93,1.33,8.15,8.87,8.15l8.35.03c26.43,0,39.85-12.24,39.85-36.39s-13.42-36.57-39.85-36.57h-31.17c-14.87,0-20.66,5.37-20.66,19.16Z" style="fill: #e00d5b;"/>
    <path d="m572.8,162.48c-9.83-10.7-14.6-27.8-14.6-52.26v-16.65c0-24.46,4.78-41.56,14.6-52.26,9.82-10.69,26.62-17,50.04-18.83,1.14-.09,3.48-.19,3.48-3.71V3.32c0-3.05-2.33-3.39-3.48-3.31-68.85,4.7-86.97,42.63-86.97,93.55v16.65c0,50.92,18.11,88.86,86.97,93.55,1.15.08,3.48-.17,3.48-3.26v-15.45c0-2.7-2.33-3.66-3.48-3.75-23.42-1.82-40.22-8.13-50.04-18.82Z" style="fill: #e00d5b;"/>
    <path d="m702.86,162.48c9.83-10.7,14.6-27.8,14.6-52.26v-16.65c0-24.46-4.78-41.56-14.6-52.26-9.82-10.69-26.62-17-50.04-18.83-1.14-.09-3.48-.19-3.48-3.71V3.32c0-3.05,2.33-3.39,3.48-3.31,68.86,4.7,86.97,42.63,86.97,93.55v16.65c0,50.92-18.12,88.86-86.97,93.55-1.15.08-3.48-.17-3.48-3.26v-15.45c0-2.7,2.33-3.66,3.48-3.75,23.42-1.82,40.22-8.13,50.04-18.82Z" style="fill: #e00d5b;"/>
  </g>
</svg>