<?xml version="1.0" encoding="UTF-8"?><svg id="Layer_1" xmlns="http://www.w3.org/2000/svg" viewBox="0 0 1246.3 347.41"><defs><style>.cls-1{fill:#fff;}.cls-2{fill:#db0a5b;}</style></defs><g><path class="cls-1" d="M83.04,88.08H36.86c-23.65,0-33.79,9.47-33.79,31.57v124.17c0,12.11,3.38,15.26,16.33,15.26h5.07c12.95,0,16.33-3.15,16.33-15.26v-114.97c0-5.52,2.53-7.89,8.44-7.89h33.8c18.3,0,24.49,8.42,24.49,24.47s-6.2,24.2-24.49,24.2l-14.05-.04c-12.96,0-14.63,3.16-14.63,15.26v2.37c0,12.11,1.67,15.26,14.63,15.26l14.05,.03c44.77,0,62.23-22.88,62.23-57.09s-17.45-57.36-62.23-57.36Z"/><path class="cls-1" d="M799.67,226.21h-68.43c-5.91,0-8.46-2.38-8.46-7.9v-27.27h65.63c12.95,0,16.32-3.16,16.32-15.26v-2.36c0-12.11-3.38-15.26-16.32-15.26l-87.11,.03c-12.96,0-16.33,4.58-16.33,15.26l.09,54.07c0,22.09,10.13,31.56,33.78,31.56h80.82c12.95,0,16.33-3.15,16.33-15.26v-2.36c0-12.11-3.38-15.26-16.33-15.26Z"/><path class="cls-1" d="M315.34,246.47l-36.9-51.83c27.04-6.57,38.02-25.26,38.02-51.83,0-32.88-17.47-54.72-62.24-54.72h-46.18c-23.65,0-33.79,9.47-33.79,31.57v124.17c0,12.11,3.37,15.26,16.33,15.26h5.07c12.95,0,16.33-3.15,16.33-15.26v-114.97c0-5.52,2.53-7.89,8.45-7.89h33.79c18.3,0,24.5,7.62,24.5,21.84,0,12.89-6.2,21.57-24.5,21.57h-19.22c-4.93,0-9.31,2.38-9.31,15.25v2.36c0,13.24,4.53,15.27,9.31,15.27h5.43l31.52,48.93c7.32,10.26,12.39,12.89,25.35,12.89h10.7c12.95,0,14.64-2.62,7.33-12.62Z"/><path class="cls-1" d="M799.67,88.08h-80.82c-23.65,0-33.78,9.47-33.78,31.57l-.06,8.8c0,12.96,3.61,15.33,17.48,15.33h2.71c13.86,0,17.48-2.49,17.48-15.33,0-4.72,.48-7.48,8.57-7.48h68.43c12.95,0,16.33-3.16,16.33-15.25v-2.38c0-12.1-3.38-15.25-16.33-15.25Z"/><path class="cls-1" d="M347.52,192.35v-36.84c0-40.51,15.77-69.97,77.72-69.97s77.72,29.46,77.72,69.97v36.84c0,40.52-15.77,69.98-77.72,69.98s-77.72-29.46-77.72-69.98Zm117.42-36.84c0-24.2-5.91-37.09-39.71-37.09s-39.7,12.89-39.7,37.09v36.84c0,24.19,5.91,37.08,39.7,37.08s39.71-12.89,39.71-37.08v-36.84Z"/><path class="cls-1" d="M527.17,236.27c0-12.1,3.38-15.52,16.33-12.36,11.83,2.9,23.38,5.26,42.8,5.26,22.25,0,30.7-3.42,30.7-14.21,0-7.89-4.78-11.84-22.53-21.57l-36.04-19.73c-18.87-10.26-28.44-23.68-28.44-44.21,0-28.94,18.87-44.19,65.61-44.19,15.21,0,24.22,1.31,35.2,4.2,13.23,3.43,16.62,6.32,16.62,18.42v2.63c0,12.1-3.38,15.79-16.62,11.84-8.16-2.37-20.56-4.21-35.2-4.21-18.58,0-26.74,2.63-26.74,12.36,0,6.58,3.94,10,15.48,16.32l37.46,20.52c21.68,11.84,34.07,23.67,34.07,47.62,0,29.72-18.88,47.09-70.12,47.09-22.25,0-37.46-3.68-42.53-5-12.95-3.41-16.04-6.05-16.04-18.15v-2.63Z"/></g><g><path class="cls-2" d="M1003.15,120.15V249.58c0,11.62,2.23,13.67,14.89,13.67h5.72c12.65,0,16.84-2.05,16.84-13.67v-119.01c0-5.71,.33-12.53,11.22-12.53h38.23c21.35,0,31.3,9.94,31.3,31.29s-9.65,30.99-31.3,30.99l-13.99-.04c-12.65,0-14.87,2.05-14.87,13.66v2.69c0,11.63,2.22,13.66,14.87,13.66l14,.05c44.3,0,66.8-20.52,66.8-61s-22.49-61.3-66.81-61.3h-52.25c-24.93,0-34.64,9.01-34.64,32.12Z"/><path class="cls-2" d="M963.3,275.27c-16.47-17.94-24.48-46.6-24.48-87.61v-27.92c0-41.01,8.01-69.66,24.48-87.61,16.46-17.93,44.62-28.5,83.89-31.56,1.92-.15,5.83-.32,5.83-6.22V8.47c0-5.12-3.91-5.69-5.83-5.55-115.43,7.87-145.79,71.46-145.79,156.83v27.92c0,85.37,30.36,148.96,145.79,156.83,1.92,.13,5.83-.29,5.83-5.47v-25.9c0-4.53-3.91-6.14-5.83-6.29-39.26-3.05-67.42-13.63-83.89-31.56Z"/><path class="cls-2" d="M1181.32,275.27c16.47-17.94,24.48-46.6,24.48-87.61v-27.92c0-41.01-8.01-69.66-24.48-87.61-16.46-17.93-44.62-28.5-83.88-31.56-1.92-.15-5.83-.32-5.83-6.22V8.47c0-5.12,3.91-5.69,5.83-5.55,115.43,7.87,145.79,71.46,145.79,156.83v27.92c0,85.37-30.37,148.96-145.79,156.83-1.92,.13-5.83-.29-5.83-5.47v-25.9c0-4.53,3.91-6.14,5.83-6.29,39.26-3.05,67.42-13.63,83.88-31.56Z"/></g></svg>