<svg xmlns="http://www.w3.org/2000/svg" width="175.889" height="80" viewBox="0 0 175.889 80">
  <g id="Gruppe_45" data-name="Gruppe 45" transform="translate(-11.612 -6.507)">
    <path id="Pfad_1" data-name="Pfad 1" d="M82.008,15.829c-3.772-10.047-22.444-12.33-41.7-5.1a69.963,69.963,0,0,0-8.61,3.924l.025.008a17.848,17.848,0,0,1,7.45,14.527,18.453,18.453,0,0,1-5.226,12.926,13.952,13.952,0,0,1-1.5,1.559,23.834,23.834,0,0,1-2.905.092s-1.518.112-1.484-.487a18.107,18.107,0,0,1,1.27-2.828A22.571,22.571,0,0,0,31.9,29.5c0-8.409-5.4-14.8-7-16.5a4.226,4.226,0,0,0,.546,1.406,9.032,9.032,0,0,1,.654,2.37c.027.74-.879,1.74-1.528,2.359-9.746,7.172-14.89,15.971-12.29,22.891,3.778,10.048,22.447,12.334,41.7,5.1a68.361,68.361,0,0,0,8.984-4.135,17.838,17.838,0,0,1-7.359-14.463A18.424,18.424,0,0,1,60.834,15.6a13.958,13.958,0,0,1,1.5-1.56,24.808,24.808,0,0,1,2.9-.092s1.518-.112,1.479.487a18.077,18.077,0,0,1-1.263,2.827,22.5,22.5,0,0,0-2.576,10.96c0,8.395,5.393,14.773,7,16.49a10.983,10.983,0,0,0-1-2.318,6.359,6.359,0,0,1-.376-1.6c-.025-.649.678-1.5,1.291-2.125C79.491,31.508,84.6,22.735,82.008,15.829ZM50.131,43.159c-.256.267-5.574.294-5.8,0s-.861-6.882-.861-14.194.619-13.942.861-14.187a22.089,22.089,0,0,1,5.8,0A96.215,96.215,0,0,1,51,28.965C51,36.3,50.394,42.894,50.131,43.159Z" transform="translate(0 0)" fill="#23a3bc"/>
    <g id="Gruppe_1" data-name="Gruppe 1" transform="translate(74.374 56.354)">
      <path id="Pfad_2" data-name="Pfad 2" d="M67.249,50.857v5h5.435v2.887H67.249V70c0,2.586.732,4.054,2.845,4.054a6.965,6.965,0,0,0,2.2-.259l.173,2.891A10.366,10.366,0,0,1,69.1,77.2a5.412,5.412,0,0,1-4.1-1.593c-1.036-1.164-1.465-3.02-1.465-5.471V52.021Z" transform="translate(-63.541 -47.102)" fill="#00253a"/>
      <path id="Pfad_3" data-name="Pfad 3" d="M74.3,62.92c0-4,3.378-8.318,9.268-8.318a3.916,3.916,0,0,1,1.036.133v3.534a11.61,11.61,0,0,0-1.339-.089c-2.669,0-4.565,2.028-5.083,4.831a11.628,11.628,0,0,0-.131,1.809V75.941H74.254Z" transform="translate(-61.306 -46.321)" fill="#00253a"/>
      <path id="Pfad_4" data-name="Pfad 4" d="M87.663,52.66a2.477,2.477,0,1,1,.047,0Zm-1.808,24.7V56.5h3.794V77.362Z" transform="translate(-59.003 -47.741)" fill="#00253a"/>
      <path id="Pfad_5" data-name="Pfad 5" d="M102.239,76.415c-5.6,0-10-4.137-10-10.732,0-6.986,4.611-11.08,10.343-11.08,5.994,0,10.047,4.356,10.047,10.69,0,7.762-5.389,11.123-10.347,11.123Zm.129-2.843c3.626,0,6.339-3.406,6.339-8.148,0-3.533-1.771-7.976-6.25-7.976-4.44,0-6.378,4.138-6.378,8.1,0,4.567,2.583,8.02,6.247,8.02Z" transform="translate(-57.554 -46.321)" fill="#00253a"/>
      <path id="Pfad_6" data-name="Pfad 6" d="M112.051,62.935c0-4,3.382-8.315,9.271-8.315a4.014,4.014,0,0,1,1.033.127v3.538a11.646,11.646,0,0,0-1.338-.087c-2.671,0-4.567,2.026-5.086,4.825a11.57,11.57,0,0,0-.127,1.813V75.957h-3.8Z" transform="translate(-53.43 -46.317)" fill="#00253a"/>
      <path id="Pfad_7" data-name="Pfad 7" d="M144.218,52.676a2.434,2.434,0,0,1,.085-4.867,2.332,2.332,0,0,1,2.42,2.41,2.38,2.38,0,0,1-2.462,2.457Zm-1.811,24.7V56.515h3.8V77.378Z" transform="translate(-47.206 -47.738)" fill="#00253a"/>
      <path id="Pfad_8" data-name="Pfad 8" d="M137.7,75.966V73.313h-.083c-.905,1.64-3.065,3.151-6.3,3.151-5.046,0-9.4-4.225-9.356-11.21a10.258,10.258,0,0,1,9.931-10.6c6.287,0,9.6,4.384,9.6,7.861V75.966Zm0-12.088a6.623,6.623,0,0,0-.169-1.638,5.751,5.751,0,0,0-5.562-4.527c-4.054,0-6.165,3.488-6.165,7.759,0,4.57,2.325,8.018,6.251,8.018a5.592,5.592,0,0,0,5.476-4.355A7.109,7.109,0,0,0,137.7,67.5Z" transform="translate(-51.354 -46.31)" fill="#00253a"/>
      <path id="Pfad_9" data-name="Pfad 9" d="M153.468,47.75V70.692c0,2.586.731,4.056,2.847,4.056a6.963,6.963,0,0,0,2.194-.26l.174,2.892a10.455,10.455,0,0,1-3.365.512,5.41,5.41,0,0,1-4.095-1.592c-1.036-1.166-1.466-3.023-1.466-5.475V47.75Z" transform="translate(-45.556 -47.75)" fill="#00253a"/>
    </g>
  </g>
</svg>
